<?xml version="1.0" encoding="utf-8"?>
<!-- Generator: Adobe Illustrator 23.1.0, SVG Export Plug-In . SVG Version: 6.00 Build 0)  -->
<svg version="1.1" id="Layer_1" xmlns="http://www.w3.org/2000/svg" xmlns:xlink="http://www.w3.org/1999/xlink" x="0px" y="0px"
	 viewBox="0 0 460.63 60.41" style="enable-background:new 0 0 460.63 60.41;" xml:space="preserve">
<style type="text/css">
	.st0{fill:#5A6E7F;}
	.st1{fill:#97D5C9;}
	.st2{fill:#5CBFAB;}
	.st3{fill:#FFFFFF;stroke:#6D6D6D;stroke-width:0.5;stroke-miterlimit:10;}
	.st4{fill:#FFFFFF;}
</style>
<g>
	<path class="st0" d="M65.1,3.63h17.46c6.58,0,11.39,1.57,14.43,4.71c3.04,3.14,4.56,8.15,4.56,15.03v13.67
		c0,6.88-1.52,11.9-4.56,15.03c-3.04,3.14-7.85,4.71-14.43,4.71H65.1v-6h4.56V9.55H65.1V3.63z M81.65,50.86
		c2.33,0,4.34-0.23,6.04-0.68c1.7-0.46,3.1-1.23,4.21-2.32c1.11-1.09,1.94-2.54,2.47-4.37c0.53-1.82,0.8-4.12,0.8-6.91V23.83
		c0-2.78-0.27-5.09-0.8-6.91c-0.53-1.82-1.35-3.28-2.47-4.37c-1.11-1.09-2.52-1.86-4.21-2.32c-1.7-0.46-3.71-0.68-6.04-0.68h-5.62
		v41.3H81.65z"/>
	<path class="st0" d="M116.96,39.77c0.15,3.75,1.32,6.76,3.49,9.03c2.18,2.28,5.21,3.42,9.11,3.42c1.77,0,3.31-0.2,4.63-0.61
		c1.32-0.4,2.44-0.96,3.38-1.67c0.94-0.71,1.7-1.53,2.28-2.47c0.58-0.94,1.05-1.94,1.4-3l5.62,1.52c-1.06,3.49-3.03,6.34-5.88,8.54
		c-2.86,2.2-6.72,3.3-11.58,3.3c-2.68,0-5.15-0.47-7.4-1.4c-2.25-0.94-4.19-2.26-5.81-3.99c-1.62-1.72-2.89-3.77-3.8-6.15
		c-0.91-2.38-1.37-5.01-1.37-7.9v-1.82c0-2.63,0.47-5.09,1.4-7.36c0.94-2.28,2.24-4.24,3.91-5.88c1.67-1.64,3.63-2.94,5.88-3.87
		c2.25-0.94,4.69-1.4,7.33-1.4c3.09,0,5.76,0.57,8.01,1.71c2.25,1.14,4.1,2.54,5.54,4.21c1.44,1.67,2.51,3.49,3.19,5.47
		c0.68,1.97,1.02,3.8,1.02,5.47v4.86H116.96z M129.56,23.68c-1.67,0-3.23,0.27-4.67,0.8c-1.44,0.53-2.71,1.28-3.8,2.24
		c-1.09,0.96-1.97,2.09-2.66,3.38c-0.68,1.29-1.13,2.7-1.33,4.21h24.3c-0.1-1.62-0.49-3.09-1.18-4.4c-0.68-1.32-1.57-2.43-2.66-3.34
		c-1.09-0.91-2.33-1.62-3.72-2.13C132.46,23.93,131.03,23.68,129.56,23.68z"/>
	<path class="st0" d="M181.49,56.78H169.8l-13.13-37.66h6.99l11.54,34.93h0.91l11.54-34.93h6.99L181.49,56.78z"/>
	<path class="st0" d="M205.56,3.63h6.38v47.23h27.79v5.92h-34.17V3.63z"/>
	<path class="st0" d="M252.94,51.31h13.21V24.59h-11.84v-5.47h17.77v32.19h12.3v5.47h-31.43V51.31z M263.72,7.88
		c0-1.47,0.52-2.72,1.56-3.76c1.04-1.04,2.29-1.56,3.76-1.56c1.47,0,2.72,0.52,3.76,1.56c1.04,1.04,1.56,2.29,1.56,3.76
		c0,1.47-0.52,2.72-1.56,3.76c-1.04,1.04-2.29,1.56-3.76,1.56c-1.47,0-2.72-0.52-3.76-1.56C264.24,10.6,263.72,9.35,263.72,7.88z"/>
	<path class="st0" d="M298.11,19.12h11.62V9.55c0-1.72,0.54-3.14,1.63-4.25c1.09-1.11,2.49-1.67,4.21-1.67h14.88V9.1H317.7
		c-1.37,0-2.05,0.76-2.05,2.28v7.74h15.72v5.47h-15.72v32.19h-5.92V24.59h-11.62V19.12z"/>
	<path class="st0" d="M349.29,39.77c0.15,3.75,1.32,6.76,3.49,9.03c2.18,2.28,5.21,3.42,9.11,3.42c1.77,0,3.31-0.2,4.63-0.61
		c1.31-0.4,2.44-0.96,3.38-1.67c0.94-0.71,1.7-1.53,2.28-2.47c0.58-0.94,1.05-1.94,1.41-3L379.2,46c-1.06,3.49-3.02,6.34-5.88,8.54
		c-2.86,2.2-6.72,3.3-11.58,3.3c-2.68,0-5.15-0.47-7.4-1.4c-2.25-0.94-4.19-2.26-5.81-3.99c-1.62-1.72-2.89-3.77-3.8-6.15
		c-0.91-2.38-1.37-5.01-1.37-7.9v-1.82c0-2.63,0.47-5.09,1.41-7.36c0.94-2.28,2.24-4.24,3.91-5.88c1.67-1.64,3.63-2.94,5.88-3.87
		c2.25-0.94,4.69-1.4,7.33-1.4c3.09,0,5.76,0.57,8.01,1.71c2.25,1.14,4.1,2.54,5.54,4.21c1.44,1.67,2.51,3.49,3.19,5.47
		s1.03,3.8,1.03,5.47v4.86H349.29z M361.89,23.68c-1.67,0-3.23,0.27-4.67,0.8c-1.44,0.53-2.71,1.28-3.8,2.24
		c-1.09,0.96-1.97,2.09-2.66,3.38s-1.13,2.7-1.33,4.21h24.3c-0.1-1.62-0.49-3.09-1.18-4.4c-0.68-1.32-1.57-2.43-2.66-3.34
		c-1.09-0.91-2.33-1.62-3.72-2.13C364.79,23.93,363.36,23.68,361.89,23.68z"/>
</g>
<g>
	<path class="st0" d="M-198.73,28.28c-1.95,0-3.54,1.72-3.54,3.84v0.1h126.55v-0.1c0-2.12-1.58-3.84-3.54-3.84H-198.73z"/>
	<rect x="-202.27" y="32.22" class="st1" width="126.55" height="1.62"/>
	<path class="st0" d="M-202.27,81.43c0,2.12,1.58,3.84,3.54,3.84h119.48c1.95,0,3.54-1.72,3.54-3.84V33.84h-126.55V81.43z
		 M-178.17,79.27h-7.14v-7.43h7.14V79.27z M-179.4,67.29v-7.43h7.14v7.43H-179.4z M-167.48,79.27h-7.14v-7.43h7.14V79.27z
		 M-168.88,67.29v-7.43h7.14v7.43H-168.88z M-114.05,79.27h-10.69h-7.14h-3.54h-7.14h-22.06v-7.43h22.06h7.14h3.54h7.14h10.69V79.27
		z M-158.37,67.29v-7.43h7.14v7.43H-158.37z M-147.85,67.29v-7.43h7.14v7.43H-147.85z M-137.33,67.29v-7.43h7.15v7.43H-137.33z
		 M-126.81,67.29v-7.43h7.14v7.43H-126.81z M-116.3,67.29v-7.43h7.14v7.43H-116.3z M-103.36,79.27h-7.15v-7.43h7.15V79.27z
		 M-105.78,67.29v-7.43h7.15v7.43H-105.78z M-92.67,79.27h-7.14v-7.43h7.14V79.27z M-96.26,67.29v-7.43H-82v7.43H-96.26z
		 M-81.98,79.27h-7.14v-7.43h7.14V79.27z M-89.13,35.91h7.14v7.43h-7.14V35.91z M-89.13,47.89h7.14v7.42h-7.14V47.89z M-99.81,35.91
		h7.14v7.43h-7.14V35.91z M-99.81,47.89h7.14v7.42h-7.14V47.89z M-110.5,35.91h7.15v7.43h-7.15V35.91z M-110.5,47.89h7.15v7.42
		h-7.15V47.89z M-121.19,35.91h7.14v7.43h-7.14V35.91z M-121.19,47.89h7.14v7.42h-7.14V47.89z M-131.88,35.91h7.14v7.43h-7.14V35.91
		z M-131.88,47.89h7.14v7.42h-7.14V47.89z M-142.57,35.91h7.14v7.43h-7.14V35.91z M-142.57,47.89h7.14v7.42h-7.14V47.89z
		 M-153.25,35.91h7.14v7.43h-7.14V35.91z M-153.25,47.89h7.14v7.42h-7.14V47.89z M-163.94,35.91h7.14v7.43h-7.14V35.91z
		 M-163.94,47.89h7.14v7.42h-7.14V47.89z M-174.63,35.91h7.14v7.43h-7.14V35.91z M-174.63,47.89h7.14v7.42h-7.14V47.89z
		 M-185.32,35.91h7.14v7.43h-7.14V35.91z M-185.32,47.89h7.14v7.42h-7.14V47.89z M-196.01,35.91h7.15v7.43h-7.15V35.91z
		 M-196.01,47.89h7.15v7.42h-7.15V47.89z M-196.01,59.86h14.26v7.43h-14.26V59.86z M-196.01,71.84h7.15v7.43h-7.15V71.84z"/>
	<rect x="-196.01" y="35.91" class="st2" width="7.15" height="7.43"/>
	<rect x="-185.32" y="35.91" class="st2" width="7.14" height="7.43"/>
	<rect x="-174.63" y="35.91" class="st2" width="7.14" height="7.43"/>
	<rect x="-163.94" y="35.91" class="st2" width="7.14" height="7.43"/>
	<rect x="-153.25" y="35.91" class="st2" width="7.14" height="7.43"/>
	<rect x="-142.57" y="35.91" class="st2" width="7.14" height="7.43"/>
	<rect x="-131.88" y="35.91" class="st2" width="7.14" height="7.43"/>
	<rect x="-121.19" y="35.91" class="st2" width="7.14" height="7.43"/>
	<rect x="-110.5" y="35.91" class="st2" width="7.15" height="7.43"/>
	<rect x="-99.81" y="35.91" class="st2" width="7.14" height="7.43"/>
	<rect x="-89.13" y="35.91" class="st2" width="7.14" height="7.43"/>
	<rect x="-196.01" y="47.89" class="st2" width="7.15" height="7.42"/>
	<rect x="-185.32" y="47.89" class="st2" width="7.14" height="7.42"/>
	<rect x="-174.63" y="47.89" class="st2" width="7.14" height="7.42"/>
	<rect x="-163.94" y="47.89" class="st2" width="7.14" height="7.42"/>
	<rect x="-153.25" y="47.89" class="st2" width="7.14" height="7.42"/>
	<rect x="-142.57" y="47.89" class="st2" width="7.14" height="7.42"/>
	<rect x="-131.88" y="47.89" class="st2" width="7.14" height="7.42"/>
	<rect x="-121.19" y="47.89" class="st2" width="7.14" height="7.42"/>
	<rect x="-110.5" y="47.89" class="st2" width="7.15" height="7.42"/>
	<rect x="-99.81" y="47.89" class="st2" width="7.14" height="7.42"/>
	<rect x="-89.13" y="47.89" class="st2" width="7.14" height="7.42"/>
	<rect x="-196.01" y="59.86" class="st2" width="14.26" height="7.43"/>
	<rect x="-96.26" y="59.86" class="st2" width="14.26" height="7.43"/>
	<rect x="-179.4" y="59.86" class="st2" width="7.14" height="7.43"/>
	<rect x="-168.88" y="59.86" class="st2" width="7.14" height="7.43"/>
	<rect x="-158.37" y="59.86" class="st2" width="7.14" height="7.43"/>
	<rect x="-147.85" y="59.86" class="st2" width="7.14" height="7.43"/>
	<rect x="-137.33" y="59.86" class="st2" width="7.15" height="7.43"/>
	<rect x="-126.81" y="59.86" class="st2" width="7.14" height="7.43"/>
	<rect x="-116.3" y="59.86" class="st2" width="7.14" height="7.43"/>
	<rect x="-105.78" y="59.86" class="st2" width="7.15" height="7.43"/>
	<rect x="-196.01" y="71.84" class="st2" width="7.15" height="7.43"/>
	<rect x="-185.32" y="71.84" class="st2" width="7.14" height="7.43"/>
	<rect x="-174.63" y="71.84" class="st2" width="7.14" height="7.43"/>
	<polygon class="st2" points="-131.88,71.84 -135.42,71.84 -142.57,71.84 -164.62,71.84 -164.62,79.27 -142.57,79.27 -135.42,79.27 
		-131.88,79.27 -124.73,79.27 -114.05,79.27 -114.05,71.84 -124.73,71.84 	"/>
	<rect x="-110.5" y="71.84" class="st2" width="7.15" height="7.43"/>
	<rect x="-99.81" y="71.84" class="st2" width="7.14" height="7.43"/>
	<rect x="-89.13" y="71.84" class="st2" width="7.14" height="7.43"/>
</g>
<g>
	<path class="st3" d="M69.5,3.43h17.46c6.58,0,11.39,1.57,14.43,4.71c3.04,3.14,4.56,8.15,4.56,15.03v13.67
		c0,6.88-1.52,11.9-4.56,15.03c-3.04,3.14-7.85,4.71-14.43,4.71H69.5v-6h4.56V9.36H69.5V3.43z M86.05,50.66
		c2.33,0,4.34-0.23,6.04-0.68c1.7-0.46,3.1-1.23,4.21-2.32c1.11-1.09,1.94-2.54,2.47-4.37c0.53-1.82,0.8-4.12,0.8-6.91V23.63
		c0-2.78-0.27-5.09-0.8-6.91c-0.53-1.82-1.35-3.28-2.47-4.37c-1.11-1.09-2.52-1.86-4.21-2.32c-1.7-0.46-3.71-0.68-6.04-0.68h-5.62
		v41.3H86.05z"/>
	<path class="st3" d="M121.35,39.57c0.15,3.75,1.32,6.76,3.49,9.03c2.18,2.28,5.21,3.42,9.11,3.42c1.77,0,3.31-0.2,4.63-0.61
		c1.32-0.4,2.44-0.96,3.38-1.67c0.94-0.71,1.7-1.53,2.28-2.47c0.58-0.94,1.05-1.94,1.4-3l5.62,1.52c-1.06,3.49-3.03,6.34-5.88,8.54
		c-2.86,2.2-6.72,3.3-11.58,3.3c-2.68,0-5.15-0.47-7.4-1.4c-2.25-0.94-4.19-2.26-5.81-3.99c-1.62-1.72-2.89-3.77-3.8-6.15
		c-0.91-2.38-1.37-5.01-1.37-7.9v-1.82c0-2.63,0.47-5.09,1.4-7.36c0.94-2.28,2.24-4.24,3.91-5.88c1.67-1.64,3.63-2.94,5.88-3.87
		c2.25-0.94,4.69-1.4,7.33-1.4c3.09,0,5.76,0.57,8.01,1.71c2.25,1.14,4.1,2.54,5.54,4.21c1.44,1.67,2.51,3.49,3.19,5.47
		c0.68,1.97,1.02,3.8,1.02,5.47v4.86H121.35z M133.96,23.48c-1.67,0-3.23,0.27-4.67,0.8c-1.44,0.53-2.71,1.28-3.8,2.24
		c-1.09,0.96-1.97,2.09-2.66,3.38c-0.68,1.29-1.13,2.7-1.33,4.21h24.3c-0.1-1.62-0.49-3.09-1.18-4.4c-0.68-1.32-1.57-2.43-2.66-3.34
		c-1.09-0.91-2.33-1.62-3.72-2.13C136.86,23.73,135.43,23.48,133.96,23.48z"/>
	<path class="st3" d="M185.89,56.58H174.2l-13.13-37.66h6.99l11.54,34.93h0.91l11.54-34.93h6.99L185.89,56.58z"/>
	<path class="st3" d="M209.96,3.43h6.38v47.23h27.79v5.92h-34.17V3.43z"/>
	<path class="st3" d="M257.34,51.11h13.21V24.39H258.7v-5.47h17.77v32.19h12.3v5.47h-31.43V51.11z M268.12,7.69
		c0-1.47,0.52-2.72,1.56-3.76c1.04-1.04,2.29-1.56,3.76-1.56c1.47,0,2.72,0.52,3.76,1.56c1.04,1.04,1.56,2.29,1.56,3.76
		c0,1.47-0.52,2.72-1.56,3.76c-1.04,1.04-2.29,1.56-3.76,1.56c-1.47,0-2.72-0.52-3.76-1.56C268.64,10.41,268.12,9.15,268.12,7.69z"
		/>
	<path class="st3" d="M302.51,18.92h11.62V9.36c0-1.72,0.54-3.14,1.63-4.25c1.09-1.11,2.49-1.67,4.21-1.67h14.88V8.9H322.1
		c-1.37,0-2.05,0.76-2.05,2.28v7.74h15.72v5.47h-15.72v32.19h-5.92V24.39h-11.62V18.92z"/>
	<path class="st3" d="M353.69,39.57c0.15,3.75,1.32,6.76,3.49,9.03c2.18,2.28,5.21,3.42,9.11,3.42c1.77,0,3.31-0.2,4.63-0.61
		c1.31-0.4,2.44-0.96,3.38-1.67c0.94-0.71,1.7-1.53,2.28-2.47c0.58-0.94,1.05-1.94,1.41-3l5.62,1.52c-1.06,3.49-3.02,6.34-5.88,8.54
		c-2.86,2.2-6.72,3.3-11.58,3.3c-2.68,0-5.15-0.47-7.4-1.4c-2.25-0.94-4.19-2.26-5.81-3.99c-1.62-1.72-2.89-3.77-3.8-6.15
		c-0.91-2.38-1.37-5.01-1.37-7.9v-1.82c0-2.63,0.47-5.09,1.41-7.36c0.94-2.28,2.24-4.24,3.91-5.88c1.67-1.64,3.63-2.94,5.88-3.87
		c2.25-0.94,4.69-1.4,7.33-1.4c3.09,0,5.76,0.57,8.01,1.71c2.25,1.14,4.1,2.54,5.54,4.21c1.44,1.67,2.51,3.49,3.19,5.47
		s1.03,3.8,1.03,5.47v4.86H353.69z M366.29,23.48c-1.67,0-3.23,0.27-4.67,0.8c-1.44,0.53-2.71,1.28-3.8,2.24
		c-1.09,0.96-1.97,2.09-2.66,3.38s-1.13,2.7-1.33,4.21h24.3c-0.1-1.62-0.49-3.09-1.18-4.4c-0.68-1.32-1.57-2.43-2.66-3.34
		c-1.09-0.91-2.33-1.62-3.72-2.13C369.19,23.73,367.76,23.48,366.29,23.48z"/>
</g>
<g>
	<path class="st4" d="M23.53,34.26V23.32l30.1-10.37V19l-27.94,9.36v0.86l27.94,9.36v6.05L23.53,34.26z"/>
	<path class="st4" d="M395.83,49.95V43.9l27.94-9.36v-0.86l-27.94-9.36v-6.05l30.1,10.37v10.94L395.83,49.95z"/>
</g>
</svg>
