<?xml version="1.0" encoding="utf-8"?>
<!-- Generator: Adobe Illustrator 23.1.0, SVG Export Plug-In . SVG Version: 6.00 Build 0)  -->
<svg version="1.1" id="Layer_1" xmlns="http://www.w3.org/2000/svg" xmlns:xlink="http://www.w3.org/1999/xlink" x="0px" y="0px"
	 viewBox="0 0 372.29 60.41" style="enable-background:new 0 0 372.29 60.41;" xml:space="preserve">
<g>
	<path d="M0.82,33.19v-7.3l20.06-6.91v4.03L2.26,29.25v0.58l18.62,6.24v4.03L0.82,33.19z"/>
	<path d="M38.64,12.74h11.04c4.16,0,7.2,0.99,9.12,2.98c1.92,1.98,2.88,5.15,2.88,9.5v8.64c0,4.35-0.96,7.52-2.88,9.5
		c-1.92,1.98-4.96,2.98-9.12,2.98H38.64v-3.79h2.88V16.48h-2.88V12.74z M49.11,42.59c1.47,0,2.74-0.14,3.82-0.43
		c1.07-0.29,1.96-0.78,2.66-1.46c0.7-0.69,1.22-1.61,1.56-2.76c0.34-1.15,0.5-2.61,0.5-4.37v-8.06c0-1.76-0.17-3.22-0.5-4.37
		c-0.34-1.15-0.86-2.07-1.56-2.76c-0.7-0.69-1.59-1.18-2.66-1.46c-1.07-0.29-2.34-0.43-3.82-0.43h-3.55v26.11H49.11z"/>
	<path d="M78.63,12.74h20.35v3.74H82.66v11.14h16.03v3.74H82.66v11.23h16.61v3.74H78.63V12.74z"/>
	<path d="M114.39,12.74h4.32l8.78,31.87h0.58l8.78-31.87h4.32l-9.5,33.6h-7.78L114.39,12.74z"/>
	<path d="M156.24,12.74h4.03v29.86h17.57v3.74h-21.6V12.74z"/>
	<path d="M195.08,12.74h21.31v3.74h-8.64v26.11h8.64v3.74h-21.31v-3.74h8.64V16.48h-8.64V12.74z"/>
	<path d="M234.58,12.74h20.64v3.74h-16.61v11.14h16.32v3.74h-16.32v14.98h-4.03V12.74z"/>
	<path d="M273.51,12.74h20.35v3.74h-16.32v11.14h16.03v3.74h-16.03v11.23h16.61v3.74h-20.64V12.74z"/>
	<path d="M327.99,7.65l3.36,1.06l-13.97,42.72l-3.41-1.06L327.99,7.65z"/>
	<path d="M351.61,40.1v-4.03l18.62-6.24v-0.58l-18.62-6.24v-4.03l20.06,6.91v7.3L351.61,40.1z"/>
</g>
</svg>
